<svg width="77" height="65" viewBox="0 0 77 65" fill="none" xmlns="http://www.w3.org/2000/svg">
<path d="M13.4756 21.4024H23.2113V48.4578H39.6341V56.2805H13.4756V21.4024Z" fill="white"/>
<path d="M45.9571 32.534H40.648V42.0122H30.9146V6.34146H46.6453C49.7587 6.34146 52.4624 6.88501 54.7565 7.97212C57.0506 9.02526 58.8203 10.554 60.0656 12.5584C61.311 14.5287 61.9336 16.8558 61.9336 19.5396C61.9336 22.1215 61.3437 24.3807 60.1639 26.3171C59.0169 28.2195 57.3619 29.7143 55.1989 30.8014L62.6219 42.0122H52.2002L45.9571 32.534ZM52.1019 19.5396C52.1019 17.875 51.594 16.5841 50.578 15.6668C49.5621 14.7496 48.0545 14.2909 46.0554 14.2909H40.648V24.7374H46.0554C48.0545 24.7374 49.5621 24.2957 50.578 23.4125C51.594 22.4952 52.1019 21.2043 52.1019 19.5396Z" fill="white"/>
<path d="M0 0H15.061V5.54878H0V0Z" fill="white"/>
<path d="M0 5.54877H5.54878V15.061H0V5.54877Z" fill="white"/>
<path d="M76.9165 65L62.1186 64.9281L62.1473 59.0121L76.9453 59.084L76.9165 65Z" fill="white"/>
<path d="M76.9453 59.084L71.0293 59.0553L71.0719 50.2865L76.9879 50.3153L76.9453 59.084Z" fill="white"/>
</svg>
