<svg width="100" height="99" viewBox="0 0 100 99" fill="none" xmlns="http://www.w3.org/2000/svg">
<g filter="url(#filter0_d_2_62)">
<rect x="20" y="14" width="60" height="59" rx="18" fill="#2258E4"/>
<path d="M43.471 34C44.3101 34 45.0852 34.0681 45.7965 34.2723C46.5077 34.4084 47.0911 34.6892 47.6105 35.0296C48.13 35.3699 48.5136 35.8549 48.7773 36.476C49.033 37.0972 49.1689 37.8545 49.1689 38.6798C49.1689 39.6413 48.9771 40.4666 48.5216 41.0878C48.13 41.7089 47.4907 42.262 46.7075 42.6704C47.8103 43.0107 48.6494 43.6319 49.1609 44.4572C49.6723 45.2826 50 46.3121 50 47.4863C50 48.4478 49.8082 49.2732 49.4806 49.9624C49.1609 50.6516 48.6414 51.2727 48.0581 51.6811C47.4747 52.0981 46.7635 52.4384 45.9883 52.6426C45.2131 52.8468 44.4379 52.983 43.6628 52.983L35 53V34H43.471ZM42.9515 41.7089C43.6628 41.7089 44.2461 41.5047 44.6937 41.1558C45.1412 40.807 45.341 40.1944 45.341 39.4371C45.341 39.0202 45.277 38.6117 45.1492 38.3395C45.0213 38.0672 44.8295 37.8545 44.5658 37.6502C44.3101 37.5141 44.0464 37.378 43.7267 37.3099C43.407 37.2418 43.0794 37.2418 42.6958 37.2418H38.9478V41.7174C38.9478 41.7089 42.9515 41.7089 42.9515 41.7089ZM43.1433 49.8348C43.5349 49.8348 43.9185 49.7667 44.2461 49.6986C44.5658 49.6305 44.8934 49.4944 45.1492 49.2817C45.4049 49.069 45.6047 48.8648 45.7965 48.5244C45.9243 48.1841 46.0522 47.7671 46.0522 47.2821C46.0522 46.3206 45.7965 45.6314 45.277 45.1464C44.7576 44.7295 44.0464 44.5253 43.2072 44.5253H38.9478V49.8262H43.1433V49.8348Z" fill="white"/>
<path d="M56.395 48.3241C56.9211 48.8721 57.7062 49.1419 58.7504 49.1419C59.4707 49.1419 60.1263 48.9396 60.6524 48.5939C61.1785 48.1808 61.5023 47.7761 61.6318 47.363H64.837C64.3109 48.9986 63.5258 50.1621 62.4817 50.9124C61.4375 51.5953 60.1911 52 58.6856 52C57.6415 52 56.7188 51.7977 55.8689 51.452C55.019 51.1148 54.3634 50.6342 53.7726 49.9513C53.1817 49.3358 52.7285 48.5855 52.4614 47.7002C52.1376 46.815 52 45.8623 52 44.7663C52 43.7461 52.1295 42.785 52.4614 41.8998C52.7932 41.0145 53.2465 40.2642 53.8373 39.5813C54.4282 38.9658 55.1485 38.4178 55.9337 38.0806C56.7835 37.7433 57.6334 37.5326 58.6856 37.5326C59.8026 37.5326 60.7819 37.7349 61.6318 38.2155C62.4817 38.696 63.1373 39.2356 63.6634 40.0534C64.1895 40.8037 64.578 41.689 64.8451 42.6417C64.9746 43.5944 65.0393 44.5555 64.9746 45.6431H55.4804C55.4804 46.756 55.8689 47.7761 56.395 48.3241ZM60.5229 41.1578C60.0616 40.6773 59.3412 40.4075 58.4913 40.4075C57.9005 40.4075 57.4472 40.5424 57.0506 40.7447C56.654 40.9471 56.395 41.2253 56.136 41.4951C55.877 41.7649 55.7394 42.1105 55.6747 42.4478C55.6099 42.785 55.5451 43.0632 55.5451 43.333H61.4375C61.308 42.3213 60.9762 41.6384 60.5229 41.1578ZM54.76 34H62.0932V35.8379H54.76V34Z" fill="white"/>
</g>
<defs>
<filter id="filter0_d_2_62" x="0" y="0" width="100" height="99" filterUnits="userSpaceOnUse" color-interpolation-filters="sRGB">
<feFlood flood-opacity="0" result="BackgroundImageFix"/>
<feColorMatrix in="SourceAlpha" type="matrix" values="0 0 0 0 0 0 0 0 0 0 0 0 0 0 0 0 0 0 127 0" result="hardAlpha"/>
<feOffset dy="6"/>
<feGaussianBlur stdDeviation="10"/>
<feColorMatrix type="matrix" values="0 0 0 0 0 0 0 0 0 0 0 0 0 0 0 0 0 0 0.1 0"/>
<feBlend mode="normal" in2="BackgroundImageFix" result="effect1_dropShadow_2_62"/>
<feBlend mode="normal" in="SourceGraphic" in2="effect1_dropShadow_2_62" result="shape"/>
</filter>
</defs>
</svg>
