<svg width="100" height="100" viewBox="0 0 100 100" fill="none" xmlns="http://www.w3.org/2000/svg">
<g filter="url(#filter0_d_2_70)">
<rect x="20" y="14" width="60" height="60" rx="18" fill="url(#paint0_linear_2_70)"/>
<path d="M50 34.1622C53.2041 34.1622 53.5837 34.1744 54.849 34.2321C56.019 34.2855 56.6544 34.481 57.0773 34.6453C57.6374 34.863 58.0371 35.123 58.457 35.5429C58.877 35.9629 59.137 36.3626 59.3547 36.9227C59.519 37.3456 59.7145 37.981 59.7679 39.1509C59.8256 40.4163 59.8378 40.7958 59.8378 43.9999C59.8378 47.2041 59.8256 47.5836 59.7679 48.849C59.7145 50.019 59.519 50.6543 59.3547 51.0772C59.137 51.6373 58.877 52.0371 58.4571 52.457C58.0371 52.8769 57.6374 53.1369 57.0773 53.3546C56.6544 53.519 56.019 53.7144 54.849 53.7678C53.5839 53.8255 53.2044 53.8378 50 53.8378C46.7956 53.8378 46.4162 53.8255 45.151 53.7678C43.981 53.7144 43.3456 53.519 42.9227 53.3546C42.3626 53.1369 41.9629 52.8769 41.543 52.457C41.1231 52.0371 40.863 51.6373 40.6453 51.0772C40.481 50.6543 40.2855 50.019 40.2321 48.849C40.1744 47.5836 40.1622 47.2041 40.1622 43.9999C40.1622 40.7958 40.1744 40.4163 40.2321 39.1509C40.2855 37.981 40.481 37.3456 40.6453 36.9227C40.863 36.3626 41.123 35.9629 41.543 35.543C41.9629 35.123 42.3626 34.863 42.9227 34.6453C43.3456 34.481 43.981 34.2855 45.151 34.2321C46.4163 34.1744 46.7959 34.1622 50 34.1622ZM50 32C46.741 32 46.3323 32.0138 45.0524 32.0722C43.7752 32.1305 42.9028 32.3333 42.1395 32.63C41.3504 32.9366 40.6812 33.3469 40.0141 34.0141C39.3469 34.6812 38.9366 35.3504 38.63 36.1395C38.3333 36.9028 38.1305 37.7751 38.0722 39.0524C38.0138 40.3323 38 40.741 38 43.9999C38 47.259 38.0138 47.6676 38.0722 48.9475C38.1305 50.2248 38.3333 51.0971 38.63 51.8604C38.9366 52.6495 39.3469 53.3187 40.0141 53.9859C40.6812 54.653 41.3504 55.0633 42.1395 55.3699C42.9028 55.6666 43.7752 55.8694 45.0524 55.9277C46.3323 55.9861 46.741 55.9999 50 55.9999C53.259 55.9999 53.6677 55.9861 54.9476 55.9277C56.2248 55.8694 57.0972 55.6666 57.8605 55.3699C58.6496 55.0633 59.3188 54.653 59.9859 53.9859C60.653 53.3187 61.0634 52.6495 61.37 51.8604C61.6667 51.0971 61.8695 50.2248 61.9278 48.9475C61.9862 47.6676 62 47.259 62 43.9999C62 40.741 61.9862 40.3323 61.9278 39.0524C61.8695 37.7751 61.6667 36.9028 61.37 36.1395C61.0634 35.3504 60.653 34.6812 59.9859 34.0141C59.3188 33.3469 58.6496 32.9366 57.8605 32.63C57.0972 32.3333 56.2248 32.1305 54.9476 32.0722C53.6677 32.0138 53.259 32 50 32Z" fill="white"/>
<path d="M50.0054 37.8434C46.6021 37.8434 43.8433 40.6023 43.8433 44.0055C43.8433 47.4088 46.6021 50.1677 50.0054 50.1677C53.4087 50.1677 56.1676 47.4088 56.1676 44.0055C56.1676 40.6023 53.4087 37.8434 50.0054 37.8434ZM50.0054 48.0055C47.7963 48.0055 46.0054 46.2147 46.0054 44.0055C46.0054 41.7964 47.7963 40.0056 50.0054 40.0056C52.2146 40.0056 54.0054 41.7964 54.0054 44.0055C54.0054 46.2147 52.2146 48.0055 50.0054 48.0055Z" fill="white"/>
<path d="M57.8507 37.5962C57.8507 38.3914 57.206 39.0361 56.4107 39.0361C55.6154 39.0361 54.9707 38.3914 54.9707 37.5962C54.9707 36.8009 55.6154 36.1561 56.4107 36.1561C57.206 36.1561 57.8507 36.8009 57.8507 37.5962Z" fill="white"/>
</g>
<defs>
<filter id="filter0_d_2_70" x="0" y="0" width="100" height="100" filterUnits="userSpaceOnUse" color-interpolation-filters="sRGB">
<feFlood flood-opacity="0" result="BackgroundImageFix"/>
<feColorMatrix in="SourceAlpha" type="matrix" values="0 0 0 0 0 0 0 0 0 0 0 0 0 0 0 0 0 0 127 0" result="hardAlpha"/>
<feOffset dy="6"/>
<feGaussianBlur stdDeviation="10"/>
<feColorMatrix type="matrix" values="0 0 0 0 0 0 0 0 0 0 0 0 0 0 0 0 0 0 0.1 0"/>
<feBlend mode="normal" in2="BackgroundImageFix" result="effect1_dropShadow_2_70"/>
<feBlend mode="normal" in="SourceGraphic" in2="effect1_dropShadow_2_70" result="shape"/>
</filter>
<linearGradient id="paint0_linear_2_70" x1="25" y1="69.5" x2="76" y2="18" gradientUnits="userSpaceOnUse">
<stop stop-color="#F7CD2E"/>
<stop offset="0.292376" stop-color="#E01935"/>
<stop offset="0.617789" stop-color="#AE3D94"/>
<stop offset="1" stop-color="#8C4CBE"/>
</linearGradient>
</defs>
</svg>
