<svg width="77" height="65" viewBox="0 0 77 65" fill="none" xmlns="http://www.w3.org/2000/svg">
<path d="M13.4756 20.9024H12.9756V21.4024V56.2805V56.7805H13.4756H39.6341H40.1341V56.2805V48.4578V47.9578H39.6341H23.7113V21.4024V20.9024H23.2113H13.4756Z" stroke="#373831"/>
<path d="M63.0388 41.7362L55.921 30.9863C57.9201 29.8857 59.4819 28.4162 60.5915 26.5762C61.825 24.5512 62.4336 22.1998 62.4336 19.5396C62.4336 16.7767 61.7918 14.3544 60.4894 12.2929C59.1891 10.2009 57.3427 8.60978 54.9679 7.51901C52.5941 6.39469 49.8151 5.84146 46.6453 5.84146H30.9146H30.4146V6.34146V42.0122V42.5122H30.9146H40.648H41.148V42.0122V33.034H45.6877L51.7827 42.2872L51.9309 42.5122H52.2002H62.6219H63.5526L63.0388 41.7362ZM50.2429 16.0379C51.1316 16.8402 51.6019 17.9833 51.6019 19.5396C51.6019 21.0939 51.1328 22.236 50.2464 23.0382C49.3567 23.8097 47.9883 24.2374 46.0554 24.2374H41.148V14.7909H46.0554C47.9868 14.7909 49.3534 15.2348 50.2429 16.0379Z" stroke="#373831"/>
<path d="M0.5 0.5H14.561V5.04878H0.5V0.5Z" stroke="#373831"/>
<path d="M0.5 6.04877H5.04878V14.561H0.5V6.04877Z" stroke="#373831"/>
<path d="M76.4189 64.4976L62.621 64.4305L62.6449 59.5145L76.4428 59.5816L76.4189 64.4976Z" stroke="#373831"/>
<path d="M76.4477 58.5816L71.5317 58.5577L71.5695 50.789L76.4855 50.8129L76.4477 58.5816Z" stroke="#373831"/>
<rect x="72" y="58" width="4" height="3" fill="#FFFEFE"/>
<path d="M1 4H4.5V7H1V4Z" fill="#FFFEFE"/>
</svg>
