<svg width="99" height="100" viewBox="0 0 99 100" fill="none" xmlns="http://www.w3.org/2000/svg">
<g filter="url(#filter0_d_2_74)">
<rect x="20" y="14" width="58.5796" height="60" rx="18" fill="#E42222"/>
<path fill-rule="evenodd" clip-rule="evenodd" d="M49.8523 32C43.3024 32 40 36.6959 40 40.6118C40 42.9826 40.8978 45.0924 42.8231 45.8777C43.1389 46.0067 43.4216 45.8822 43.5131 45.5327C43.5769 45.2905 43.7276 44.6799 43.7944 44.4257C43.8866 44.0799 43.8506 43.9592 43.5956 43.6577C43.0406 43.0029 42.6858 42.1553 42.6858 40.9546C42.6858 37.4699 45.2929 34.3513 49.4736 34.3513C53.1757 34.3513 55.2098 36.6141 55.2098 39.6345C55.2098 43.6096 53.4502 46.9645 50.8394 46.9645C49.3971 46.9645 48.3178 45.7712 48.6636 44.3087C49.0776 42.5626 49.8808 40.6771 49.8808 39.417C49.8808 38.289 49.2748 37.3477 48.0215 37.3477C46.547 37.3477 45.3627 38.8725 45.3627 40.9156C45.3627 42.2169 45.8022 43.0974 45.8022 43.0974C45.8022 43.0974 44.2931 49.4899 44.0291 50.6097C43.5026 52.8395 43.9504 55.5726 43.9879 55.8486C44.0104 56.0121 44.2204 56.0511 44.3156 55.9266C44.4514 55.7496 46.2072 53.5812 46.8042 51.4152C46.973 50.8024 47.774 47.6261 47.774 47.6261C48.2525 48.5396 49.6528 49.3444 51.1416 49.3444C55.5735 49.3444 58.5796 45.304 58.5796 39.8955C58.5796 35.8079 55.1168 32 49.8523 32Z" fill="white"/>
</g>
<defs>
<filter id="filter0_d_2_74" x="0" y="0" width="98.5796" height="100" filterUnits="userSpaceOnUse" color-interpolation-filters="sRGB">
<feFlood flood-opacity="0" result="BackgroundImageFix"/>
<feColorMatrix in="SourceAlpha" type="matrix" values="0 0 0 0 0 0 0 0 0 0 0 0 0 0 0 0 0 0 127 0" result="hardAlpha"/>
<feOffset dy="6"/>
<feGaussianBlur stdDeviation="10"/>
<feColorMatrix type="matrix" values="0 0 0 0 0 0 0 0 0 0 0 0 0 0 0 0 0 0 0.1 0"/>
<feBlend mode="normal" in2="BackgroundImageFix" result="effect1_dropShadow_2_74"/>
<feBlend mode="normal" in="SourceGraphic" in2="effect1_dropShadow_2_74" result="shape"/>
</filter>
</defs>
</svg>
