<svg aria-hidden="true" style="position: absolute; width: 0; height: 0; overflow: hidden;" version="1.1" xmlns="http://www.w3.org/2000/svg" xmlns:xlink="http://www.w3.org/1999/xlink">
<defs>
<symbol id="icon-ak-logo" viewBox="0 0 38 32">
<path  d="M6.634 10.537h4.793v13.32h8.085v3.851h-12.878v-17.171z"></path>
<path  d="M22.625 16.017h-2.614v4.666h-4.792v-17.561h7.744c1.533 0 2.864 0.268 3.993 0.803 1.129 0.518 2.001 1.271 2.614 2.258 0.613 0.97 0.92 2.116 0.92 3.437 0 1.271-0.29 2.383-0.871 3.337-0.565 0.937-1.379 1.672-2.444 2.208l3.654 5.519h-5.131l-3.074-4.666zM25.65 9.62c0-0.819-0.25-1.455-0.75-1.907s-1.242-0.677-2.227-0.677h-2.662v5.143h2.662c0.984 0 1.726-0.217 2.227-0.652 0.5-0.452 0.75-1.087 0.75-1.907z"></path>
<path d="M0 0h7.415v2.732h-7.415v-2.732z"></path>
<path  d="M0 2.732h2.732v4.683h-2.732v-4.683z"></path>
<path  d="M37.867 32l-7.285-0.035 0.014-2.913 7.285 0.035-0.014 2.913z"></path>
<path  d="M37.881 29.087l-2.913-0.014 0.021-4.317 2.913 0.014-0.021 4.317z"></path>
</symbol>
<symbol id="icon-arrow-right" viewBox="0 0 20 20">
<path d="M16.172 9l-6.071-6.071 1.414-1.414 8.485 8.485-8.485 8.485-1.414-1.414 6.071-6.071h-16.172v-2z"></path>
</symbol>
<symbol id="icon-arrow-left" viewBox="0 0 20 20">
<path d="M3.828 9l6.071-6.071-1.414-1.414-8.485 8.485 8.485 8.485 1.414-1.414-6.071-6.071h16.172v-2h-16.172z"></path>
</symbol>
<symbol id="icon-mobile" viewBox="0 0 32 32">
<path d="M23 0h-14c-1.65 0-3 1.35-3 3v26c0 1.65 1.35 3 3 3h14c1.65 0 3-1.35 3-3v-26c0-1.65-1.35-3-3-3zM12 1.5h8v1h-8v-1zM16 30c-1.105 0-2-0.895-2-2s0.895-2 2-2 2 0.895 2 2-0.895 2-2 2zM24 24h-16v-20h16v20z"></path>
</symbol>
<symbol id="icon-pinterest" viewBox="0 0 24 28">
<path d="M24 14c0 6.625-5.375 12-12 12-1.188 0-2.312-0.172-3.406-0.5 0.453-0.719 0.969-1.641 1.219-2.562 0 0 0.141-0.531 0.844-3.297 0.406 0.797 1.625 1.5 2.922 1.5 3.859 0 6.484-3.516 6.484-8.234 0-3.547-3.016-6.875-7.609-6.875-5.688 0-8.563 4.094-8.563 7.5 0 2.063 0.781 3.906 2.453 4.594 0.266 0.109 0.516 0 0.594-0.313 0.063-0.203 0.187-0.734 0.25-0.953 0.078-0.313 0.047-0.406-0.172-0.672-0.484-0.578-0.797-1.313-0.797-2.359 0-3.031 2.266-5.75 5.906-5.75 3.219 0 5 1.969 5 4.609 0 3.453-1.531 6.375-3.813 6.375-1.25 0-2.188-1.031-1.891-2.312 0.359-1.516 1.062-3.156 1.062-4.25 0-0.984-0.531-1.813-1.625-1.813-1.281 0-2.312 1.328-2.312 3.109 0 0 0 1.141 0.391 1.906-1.313 5.563-1.547 6.531-1.547 6.531-0.219 0.906-0.234 1.922-0.203 2.766-4.234-1.859-7.187-6.078-7.187-11 0-6.625 5.375-12 12-12s12 5.375 12 12z"></path>
</symbol>
<symbol id="icon-behance" viewBox="0 0 30 30">
<path d="M28.875 5.297h-7.984v1.937h7.984v-1.937zM24.938 11.953c-1.875 0-3.125 1.172-3.25 3.047h6.375c-0.172-1.891-1.156-3.047-3.125-3.047zM25.188 21.094c1.188 0 2.719-0.641 3.094-1.859h3.453c-1.062 3.266-3.266 4.797-6.672 4.797-4.5 0-7.297-3.047-7.297-7.484 0-4.281 2.953-7.547 7.297-7.547 4.469 0 6.937 3.516 6.937 7.734 0 0.25-0.016 0.5-0.031 0.734h-10.281c0 2.281 1.203 3.625 3.5 3.625zM4.328 20.312h4.625c1.766 0 3.203-0.625 3.203-2.609 0-2.016-1.203-2.812-3.109-2.812h-4.719v5.422zM4.328 11.922h4.391c1.547 0 2.641-0.672 2.641-2.344 0-1.813-1.406-2.25-2.969-2.25h-4.062v4.594zM0 3.969h9.281c3.375 0 6.297 0.953 6.297 4.875 0 1.984-0.922 3.266-2.688 4.109 2.422 0.688 3.594 2.516 3.594 4.984 0 4-3.359 5.719-6.937 5.719h-9.547v-19.688z"></path>
</symbol>
<symbol id="icon-instagram" viewBox="0 0 24 28">
<path d="M16 14c0-2.203-1.797-4-4-4s-4 1.797-4 4 1.797 4 4 4 4-1.797 4-4zM18.156 14c0 3.406-2.75 6.156-6.156 6.156s-6.156-2.75-6.156-6.156 2.75-6.156 6.156-6.156 6.156 2.75 6.156 6.156zM19.844 7.594c0 0.797-0.641 1.437-1.437 1.437s-1.437-0.641-1.437-1.437 0.641-1.437 1.437-1.437 1.437 0.641 1.437 1.437zM12 4.156c-1.75 0-5.5-0.141-7.078 0.484-0.547 0.219-0.953 0.484-1.375 0.906s-0.688 0.828-0.906 1.375c-0.625 1.578-0.484 5.328-0.484 7.078s-0.141 5.5 0.484 7.078c0.219 0.547 0.484 0.953 0.906 1.375s0.828 0.688 1.375 0.906c1.578 0.625 5.328 0.484 7.078 0.484s5.5 0.141 7.078-0.484c0.547-0.219 0.953-0.484 1.375-0.906s0.688-0.828 0.906-1.375c0.625-1.578 0.484-5.328 0.484-7.078s0.141-5.5-0.484-7.078c-0.219-0.547-0.484-0.953-0.906-1.375s-0.828-0.688-1.375-0.906c-1.578-0.625-5.328-0.484-7.078-0.484zM24 14c0 1.656 0.016 3.297-0.078 4.953-0.094 1.922-0.531 3.625-1.937 5.031s-3.109 1.844-5.031 1.937c-1.656 0.094-3.297 0.078-4.953 0.078s-3.297 0.016-4.953-0.078c-1.922-0.094-3.625-0.531-5.031-1.937s-1.844-3.109-1.937-5.031c-0.094-1.656-0.078-3.297-0.078-4.953s-0.016-3.297 0.078-4.953c0.094-1.922 0.531-3.625 1.937-5.031s3.109-1.844 5.031-1.937c1.656-0.094 3.297-0.078 4.953-0.078s3.297-0.016 4.953 0.078c1.922 0.094 3.625 0.531 5.031 1.937s1.844 3.109 1.937 5.031c0.094 1.656 0.078 3.297 0.078 4.953z"></path>
</symbol>
</defs>
</svg>
